<?xml version="1.0" standalone="no"?>
<!DOCTYPE svg PUBLIC "-//W3C//DTD SVG 20010904//EN"
 "http://www.w3.org/TR/2001/REC-SVG-20010904/DTD/svg10.dtd">
<svg version="1.0" xmlns="http://www.w3.org/2000/svg"
 width="700.000000pt" height="700.000000pt" viewBox="0 0 700.000000 700.000000"
 preserveAspectRatio="xMidYMid meet">
<metadata>
Created by potrace 1.14, written by Peter Selinger 2001-2017
</metadata>
<g transform="translate(0.000000,700.000000) scale(0.100000,-0.100000)"
fill="#000000" stroke="none">
<path d="M2533 5895 c-194 -36 -393 -208 -501 -435 -93 -194 -127 -356 -126
-590 1 -141 6 -197 29 -296 79 -346 276 -607 526 -695 96 -34 257 -33 355 2
253 92 446 353 525 709 31 139 34 418 6 550 -33 157 -80 280 -153 407 -40 67
-48 77 -139 168 -155 156 -328 216 -522 180z"/>
<path d="M4233 5892 c-239 -48 -448 -268 -554 -582 -16 -50 -34 -114 -39 -142
-6 -29 -13 -64 -16 -78 -14 -59 -13 -327 1 -415 21 -130 22 -136 55 -233 123
-369 392 -600 684 -591 154 5 300 77 424 208 50 53 135 177 162 236 98 217
129 368 125 605 -2 85 -6 166 -9 180 -3 13 -8 42 -11 63 -28 186 -142 421
-269 555 -81 85 -210 172 -257 172 -10 0 -20 4 -23 9 -15 24 -179 32 -273 13z"/>
<path d="M1190 4381 c-318 -100 -410 -531 -205 -960 134 -278 363 -496 602
-571 78 -25 208 -34 272 -19 151 34 260 139 317 305 24 68 28 96 28 199 1 140
-4 180 -39 295 -106 354 -394 667 -691 750 -83 22 -214 23 -284 1z"/>
<path d="M5498 4376 c-168 -49 -343 -175 -472 -341 -26 -33 -52 -66 -58 -74
-6 -8 -37 -64 -68 -126 -136 -267 -165 -525 -83 -735 74 -188 240 -293 438
-277 186 15 364 112 527 287 433 463 429 1160 -7 1275 -79 21 -185 17 -277 -9z"/>
<path d="M3477 3424 c-1 -1 -29 -5 -62 -9 -206 -23 -385 -88 -524 -190 -69
-51 -262 -240 -357 -349 -241 -279 -623 -814 -719 -1008 -101 -206 -94 -393
21 -550 77 -105 254 -194 424 -214 102 -12 295 -10 375 3 117 20 270 76 377
139 57 33 180 77 248 88 19 3 46 8 60 12 14 3 122 7 240 9 309 3 422 -19 620
-122 88 -45 187 -87 235 -98 11 -3 47 -12 80 -20 81 -21 304 -25 419 -8 316
47 496 215 510 474 7 133 -40 257 -176 469 -117 182 -368 523 -512 695 -14 17
-29 35 -33 40 -72 94 -291 325 -403 424 -57 51 -230 143 -290 156 -8 2 -35 8
-60 15 -25 7 -54 14 -65 16 -11 2 -31 6 -45 9 -64 13 -352 29 -363 19z"/>
</g>
</svg>
