<svg width="204" height="204" viewBox="0 0 204 204" fill="none" xmlns="http://www.w3.org/2000/svg">
<line opacity="0.3" x1="26.475" y1="0.470703" x2="26.475" y2="203.081" stroke="#DDDDDD" stroke-width="0.7"/>
<line opacity="0.3" x1="203.406" y1="26.1469" x2="0.795853" y2="26.1469" stroke="#DDDDDD" stroke-width="0.7"/>
<line opacity="0.3" x1="203.359" y1="0.820703" x2="0.748978" y2="0.820685" stroke="#DDDDDD" stroke-width="0.7"/>
<line opacity="0.3" x1="51.8031" y1="0.470703" x2="51.8031" y2="203.081" stroke="#DDDDDD" stroke-width="0.7"/>
<line opacity="0.3" x1="203.406" y1="51.473" x2="0.795853" y2="51.473" stroke="#DDDDDD" stroke-width="0.7"/>
<line opacity="0.3" x1="77.1234" y1="0.470703" x2="77.1234" y2="203.081" stroke="#DDDDDD" stroke-width="0.7"/>
<line opacity="0.3" x1="203.406" y1="76.7992" x2="0.795853" y2="76.7992" stroke="#DDDDDD" stroke-width="0.7"/>
<line opacity="0.3" x1="102.452" y1="0.470703" x2="102.452" y2="203.081" stroke="#DDDDDD" stroke-width="0.7"/>
<line opacity="0.3" x1="203.406" y1="102.126" x2="0.795853" y2="102.126" stroke="#DDDDDD" stroke-width="0.7"/>
<line opacity="0.3" x1="127.78" y1="0.470703" x2="127.78" y2="203.081" stroke="#DDDDDD" stroke-width="0.7"/>
<line opacity="0.3" x1="203.406" y1="127.453" x2="0.795853" y2="127.453" stroke="#DDDDDD" stroke-width="0.7"/>
<line opacity="0.3" x1="153.108" y1="0.470703" x2="153.108" y2="203.081" stroke="#DDDDDD" stroke-width="0.7"/>
<line opacity="0.3" x1="203.406" y1="152.779" x2="0.795853" y2="152.779" stroke="#DDDDDD" stroke-width="0.7"/>
<line opacity="0.3" x1="178.428" y1="0.470703" x2="178.428" y2="203.081" stroke="#DDDDDD" stroke-width="0.7"/>
<line opacity="0.3" x1="203.061" y1="0.470703" x2="203.061" y2="203.081" stroke="#DDDDDD" stroke-width="0.7"/>
<line opacity="0.3" x1="203.406" y1="178.105" x2="0.795853" y2="178.105" stroke="#DDDDDD" stroke-width="0.7"/>
</svg>
