<svg width="337" height="349" viewBox="0 0 337 349" fill="none" xmlns="http://www.w3.org/2000/svg">
<path d="M164.375 34.4822H168.054V33.5722H165.363V24.0692H168.054V23.1592H164.375V34.4822Z" fill="#DDDDDD"/>
<path d="M175.232 27.1762C175.362 26.6302 175.57 25.4472 175.648 24.7972H175.726C175.713 25.3822 175.7 26.4872 175.7 27.2672V33.0002H176.844V23.7702H175.089L174.049 28.5932C173.997 28.8792 173.932 29.2302 173.906 29.4122H173.828C173.802 29.2302 173.737 28.8792 173.685 28.5932L172.645 23.7702H170.89V33.0002H172.034V27.2672C172.034 26.4872 172.021 25.3822 172.008 24.7972H172.086C172.164 25.4472 172.372 26.6302 172.502 27.1762L173.308 30.7902H174.426L175.232 27.1762Z" fill="#DDDDDD"/>
<path d="M181.733 31.2192L179.666 23.7702H178.405L181.174 33.0002H182.669L185.451 23.7702H184.164L182.123 31.2192C182.071 31.4142 181.993 31.7522 181.954 31.9342H181.902C181.863 31.7522 181.785 31.4142 181.733 31.2192Z" fill="#DDDDDD"/>
<path d="M190.679 33.0002H191.784V30.7122H193.266V29.8022H191.784V23.9652H190.523L186.571 29.9192V30.7122H190.679V33.0002ZM187.715 29.8022C187.949 29.5552 188.053 29.3732 188.326 28.9572L190.016 26.4222C190.406 25.8242 190.536 25.5902 190.692 25.1742H190.705C190.679 25.8372 190.679 26.0712 190.679 26.4872V29.8022H187.715Z" fill="#DDDDDD"/>
<path d="M199.481 34.4822V23.1592H195.802V24.0692H198.493V33.5722H195.802V34.4822H199.481Z" fill="#DDDDDD"/>
<path d="M221.564 24.4561H218.516V33.0001H221.564C224.24 33.0001 225.8 31.3681 225.8 28.7281C225.8 26.0881 224.24 24.4561 221.564 24.4561ZM219.8 31.8721V25.5841H221.552C223.436 25.5841 224.456 26.7361 224.456 28.7281C224.456 30.7201 223.436 31.8721 221.552 31.8721H219.8Z" fill="#DDDDDD"/>
<path d="M228.07 26.0161V24.7441H226.834V26.0161H228.07ZM228.058 33.0001V26.8081H226.858V33.0001H228.058Z" fill="#DDDDDD"/>
<path d="M231.693 33.1561C233.313 33.1561 234.285 32.4721 234.285 31.2601C234.285 30.2281 233.649 29.7001 232.137 29.4121L231.489 29.3041C230.757 29.1601 230.337 28.9561 230.337 28.4281C230.337 27.9121 230.757 27.6001 231.537 27.6001C232.413 27.6001 232.941 27.8521 232.989 28.7401H234.153C234.117 27.4321 233.301 26.6641 231.537 26.6641C230.013 26.6641 229.149 27.3721 229.149 28.4641C229.149 29.4721 229.785 30.0721 231.117 30.3121L231.753 30.4321C232.773 30.6121 233.073 30.8521 233.073 31.3441C233.073 31.8961 232.677 32.2081 231.705 32.2081C230.697 32.2081 230.277 31.8961 230.181 31.0321H228.981C229.065 32.5081 230.037 33.1561 231.693 33.1561Z" fill="#DDDDDD"/>
<path d="M238.394 26.6641C237.47 26.6641 236.774 27.0601 236.33 27.7441V26.8081H235.178V35.3521H236.378V32.1361C236.822 32.7721 237.506 33.1441 238.394 33.1441C240.11 33.1441 241.226 31.8841 241.226 29.9041C241.226 27.9241 240.11 26.6641 238.394 26.6641ZM238.166 32.1121C237.062 32.1121 236.354 31.3201 236.354 29.9041C236.354 28.4881 237.062 27.6961 238.166 27.6961C239.27 27.6961 239.978 28.4401 239.978 29.8561C239.978 31.2721 239.27 32.1121 238.166 32.1121Z" fill="#DDDDDD"/>
<path d="M243.48 33.0001V24.4561H242.28V33.0001H243.48Z" fill="#DDDDDD"/>
<path d="M250.151 32.0761C249.911 32.0761 249.815 31.9561 249.815 31.7641V28.4881C249.815 27.4081 249.143 26.6641 247.367 26.6641C245.507 26.6641 244.811 27.4921 244.739 28.7401H245.927C245.987 27.9001 246.395 27.6241 247.367 27.6241C248.339 27.6241 248.639 27.9361 248.639 28.5121C248.639 29.0161 248.315 29.2201 247.715 29.2921L246.803 29.3881C245.075 29.5561 244.475 30.3121 244.475 31.3081C244.475 32.4961 245.351 33.1441 246.683 33.1441C247.583 33.1441 248.279 32.8081 248.699 32.1601C248.783 32.7601 249.131 33.0361 249.899 33.0361C250.091 33.0361 250.307 33.0241 250.487 33.0001V32.0761H250.151ZM246.863 32.2081C246.083 32.2081 245.711 31.8361 245.711 31.2721C245.711 30.7201 246.011 30.3721 247.007 30.2521L247.871 30.1561C248.207 30.1201 248.459 30.0481 248.639 29.9041V30.5521C248.639 31.7161 247.739 32.2081 246.863 32.2081Z" fill="#DDDDDD"/>
<path d="M253.885 33.1441C255.361 33.1441 256.465 32.2561 256.657 30.7921H255.433C255.289 31.6921 254.629 32.1001 253.885 32.1001C252.925 32.1001 252.181 31.4041 252.181 29.9041C252.181 28.4041 252.901 27.7081 253.885 27.7081C254.617 27.7081 255.253 28.1041 255.421 28.9681H256.645C256.453 27.5641 255.421 26.6641 253.885 26.6641C252.109 26.6641 250.933 27.9241 250.933 29.9041C250.933 31.8841 252.133 33.1441 253.885 33.1441Z" fill="#DDDDDD"/>
<path d="M260.284 33.1441C261.772 33.1441 262.744 32.3041 263.044 31.1041H261.844C261.628 31.7281 261.112 32.1361 260.308 32.1361C259.324 32.1361 258.64 31.5601 258.532 30.3001H263.2V29.9521C263.2 28.0921 262.132 26.6641 260.26 26.6641C258.496 26.6641 257.32 27.9601 257.32 29.9041C257.32 31.8961 258.532 33.1441 260.284 33.1441ZM258.556 29.3521C258.7 28.2241 259.36 27.6721 260.26 27.6721C261.268 27.6721 261.856 28.3921 261.964 29.3521H258.556Z" fill="#DDDDDD"/>
<path d="M271.032 26.6641C270.144 26.6641 269.508 27.1441 269.112 27.8281C268.812 27.1321 268.176 26.6641 267.204 26.6641C266.364 26.6641 265.788 27.0961 265.416 27.7321V26.8081H264.264V33.0001H265.464V29.6041C265.464 28.2601 266.208 27.7201 266.916 27.7201C267.684 27.7201 268.116 28.1161 268.116 29.0041V33.0001H269.316V29.6041C269.316 28.2601 270.036 27.7201 270.768 27.7201C271.536 27.7201 271.956 28.1161 271.956 29.0041V33.0001H273.168V28.8481C273.168 27.5761 272.436 26.6641 271.032 26.6641Z" fill="#DDDDDD"/>
<path d="M277.182 33.1441C278.67 33.1441 279.642 32.3041 279.942 31.1041H278.742C278.526 31.7281 278.01 32.1361 277.206 32.1361C276.222 32.1361 275.538 31.5601 275.43 30.3001H280.098V29.9521C280.098 28.0921 279.03 26.6641 277.158 26.6641C275.394 26.6641 274.218 27.9601 274.218 29.9041C274.218 31.8961 275.43 33.1441 277.182 33.1441ZM275.454 29.3521C275.598 28.2241 276.258 27.6721 277.158 27.6721C278.166 27.6721 278.754 28.3921 278.862 29.3521H275.454Z" fill="#DDDDDD"/>
<path d="M284.258 26.6641C283.382 26.6641 282.722 27.1201 282.314 27.7321V26.8081H281.162V33.0001H282.362V29.5081C282.362 28.2601 283.19 27.7201 283.922 27.7201C284.762 27.7201 285.23 28.1281 285.23 29.0161V33.0001H286.43V28.8481C286.43 27.4321 285.602 26.6641 284.258 26.6641Z" fill="#DDDDDD"/>
<path d="M290.501 26.8081H289.253V25.0321H288.053V26.8081H287.057V27.7921H288.053V31.6201C288.053 32.6521 288.653 33.0361 289.769 33.0361C289.985 33.0361 290.249 33.0121 290.501 33.0001V32.0281H289.961C289.433 32.0281 289.253 31.8601 289.253 31.5001V27.7921H290.501V26.8081Z" fill="#DDDDDD"/>
<path opacity="0.3" d="M20.7734 347.955L316.773 347.955C327.626 347.955 336.423 339.158 336.423 328.305L336.423 20.8052C336.423 9.95278 327.626 1.15518 316.773 1.15517L141.706 1.15517C136.817 1.15517 132.102 2.97833 128.485 6.26843L88.8532 42.3143C85.1069 45.7216 80.2248 47.6097 75.1608 47.6097L43.8376 47.6097L20.7735 47.6097C9.92114 47.6097 1.12356 56.4073 1.12356 67.2597L1.12345 328.305C1.12344 339.158 9.92105 347.955 20.7734 347.955Z" stroke="white" stroke-width="0.7"/>
</svg>
