<svg width="544" height="140" viewBox="0 0 544 140" fill="none" xmlns="http://www.w3.org/2000/svg">
<g clip-path="url(#clip0_23_15)">
<path d="M152.082 95.4355C157.958 95.4355 161.864 93.5964 163.801 89.918C165.005 87.6393 165.607 84.5876 165.607 80.7627C165.607 76.0101 164.639 72.3887 162.702 69.8984C160.782 67.4082 157.258 66.1631 152.131 66.1631H151.374V95.4355H152.082ZM146.809 62.5986H152.79C158.584 62.5986 162.963 64.1693 165.925 67.3105C168.903 70.4518 170.393 74.9684 170.393 80.8604C170.393 86.736 168.879 91.2282 165.852 94.3369C162.824 97.4456 158.291 99 152.253 99H146.809V62.5986ZM197.053 96.6562C195.197 98.6257 192.186 99.6104 188.02 99.6104C183.853 99.6104 180.834 98.6257 178.962 96.6562C177.106 94.6868 176.179 91.5293 176.179 87.1836V62.5986H180.744V87.0371C180.744 89.9993 181.241 92.2048 182.233 93.6533C183.226 95.1019 185.155 95.8262 188.02 95.8262C190.884 95.8262 192.813 95.1019 193.806 93.6533C194.799 92.2048 195.295 89.9993 195.295 87.0371V62.5986H199.86V87.1836C199.86 91.5293 198.924 94.6868 197.053 96.6562ZM212.141 95.4355C218.016 95.4355 221.923 93.5964 223.859 89.918C225.064 87.6393 225.666 84.5876 225.666 80.7627C225.666 76.0101 224.698 72.3887 222.761 69.8984C220.84 67.4082 217.316 66.1631 212.189 66.1631H211.433V95.4355H212.141ZM206.867 62.5986H212.849C218.643 62.5986 223.021 64.1693 225.983 67.3105C228.962 70.4518 230.451 74.9684 230.451 80.8604C230.451 86.736 228.938 91.2282 225.91 94.3369C222.883 97.4456 218.35 99 212.312 99H206.867V62.5986ZM257.111 96.6562C255.256 98.6257 252.245 99.6104 248.078 99.6104C243.911 99.6104 240.892 98.6257 239.021 96.6562C237.165 94.6868 236.237 91.5293 236.237 87.1836V62.5986H240.803V87.0371C240.803 89.9993 241.299 92.2048 242.292 93.6533C243.285 95.1019 245.214 95.8262 248.078 95.8262C250.943 95.8262 252.871 95.1019 253.864 93.6533C254.857 92.2048 255.354 89.9993 255.354 87.0371V62.5986H259.919V87.1836C259.919 91.5293 258.983 94.6868 257.111 96.6562ZM268.293 92.6279C270.897 94.7601 273.998 95.8262 277.595 95.8262C279.548 95.8262 281.053 95.2321 282.111 94.0439C283.169 92.8395 283.698 91.2852 283.698 89.3809C283.698 87.4766 283.145 86.0361 282.038 85.0596C280.948 84.0667 279.621 83.2529 278.059 82.6182L276.594 82.0322C273.827 80.9255 271.906 79.9896 270.832 79.2246C269.774 78.4596 269.001 77.7598 268.513 77.125C267.357 75.6276 266.779 73.7803 266.779 71.583C266.779 68.5394 267.813 66.1794 269.88 64.5029C271.947 62.8102 274.608 61.9639 277.863 61.9639C281.965 61.9639 285.163 62.8672 287.458 64.6738L285.749 68.1895C283.633 66.5456 281.086 65.7236 278.107 65.7236C276.187 65.7236 274.657 66.2526 273.518 67.3105C272.395 68.3522 271.833 69.8171 271.833 71.7051C271.833 73.5768 272.867 75.1149 274.934 76.3193C275.715 76.7588 276.895 77.2878 278.474 77.9062C280.069 78.5247 281.656 79.249 283.234 80.0791C284.829 80.9092 286.164 82.0322 287.238 83.4482C288.312 84.8643 288.85 86.6709 288.85 88.8682C288.85 92.3675 287.832 95.0368 285.798 96.876C283.78 98.6989 281.013 99.6104 277.497 99.6104C273.119 99.6104 269.473 98.6419 266.56 96.7051L268.293 92.6279ZM298.322 92.6279C300.926 94.7601 304.027 95.8262 307.624 95.8262C309.577 95.8262 311.083 95.2321 312.141 94.0439C313.199 92.8395 313.728 91.2852 313.728 89.3809C313.728 87.4766 313.174 86.0361 312.067 85.0596C310.977 84.0667 309.65 83.2529 308.088 82.6182L306.623 82.0322C303.856 80.9255 301.936 79.9896 300.861 79.2246C299.803 78.4596 299.03 77.7598 298.542 77.125C297.386 75.6276 296.809 73.7803 296.809 71.583C296.809 68.5394 297.842 66.1794 299.909 64.5029C301.976 62.8102 304.637 61.9639 307.893 61.9639C311.994 61.9639 315.192 62.8672 317.487 64.6738L315.778 68.1895C313.662 66.5456 311.115 65.7236 308.137 65.7236C306.216 65.7236 304.686 66.2526 303.547 67.3105C302.424 68.3522 301.862 69.8171 301.862 71.7051C301.862 73.5768 302.896 75.1149 304.963 76.3193C305.744 76.7588 306.924 77.2878 308.503 77.9062C310.098 78.5247 311.685 79.249 313.264 80.0791C314.859 80.9092 316.193 82.0322 317.268 83.4482C318.342 84.8643 318.879 86.6709 318.879 88.8682C318.879 92.3675 317.862 95.0368 315.827 96.876C313.809 98.6989 311.042 99.6104 307.526 99.6104C303.148 99.6104 299.502 98.6419 296.589 96.7051L298.322 92.6279ZM333.039 82.3008V95.4355H350.227L349.86 99H328.474V62.5986H349.421L349.03 66.1631H333.039V78.4189H348.225V82.3008H333.039Z" fill="white"/>
<path opacity="0.4" d="M393 107.719L393 -182.719C393 -193.368 384.35 -202 373.679 -202L71.3214 -202C60.6505 -202 52 -193.368 52 -182.719L52 -10.9413C52 -6.14416 53.7927 -1.51774 57.0277 2.0313L92.4708 40.9185C95.8211 44.5944 97.6776 49.3848 97.6776 54.3537L97.6776 85.0884L97.6776 107.719C97.6776 118.368 106.328 127 116.999 127L373.679 127C384.35 127 393 118.368 393 107.719Z" stroke="white" stroke-width="0.7"/>
</g>
<defs>
<clipPath id="clip0_23_15">
<rect width="544" height="140" fill="white"/>
</clipPath>
</defs>
</svg>
